<mxfile host="app.diagrams.net" modified="2024-02-17T07:21:13.748Z" agent="Mozilla/5.0 (Windows NT 10.0; Win64; x64) AppleWebKit/537.36 (KHTML, like Gecko) Chrome/121.0.0.0 Safari/537.36" etag="uf6tJwdTI2c9BmLGu6_M" version="23.1.5" type="device">
  <diagram id="C5RBs43oDa-KdzZeNtuy" name="Page-1">
    <mxGraphModel dx="3434" dy="1342" grid="1" gridSize="10" guides="1" tooltips="1" connect="1" arrows="1" fold="1" page="1" pageScale="1" pageWidth="827" pageHeight="1169" math="0" shadow="0">
      <root>
        <mxCell id="WIyWlLk6GJQsqaUBKTNV-0" />
        <mxCell id="WIyWlLk6GJQsqaUBKTNV-1" parent="WIyWlLk6GJQsqaUBKTNV-0" />
        <mxCell id="YU_TS85AlWWvWFaTti_b-10" value="" style="edgeStyle=orthogonalEdgeStyle;rounded=0;orthogonalLoop=1;jettySize=auto;html=1;fontSize=14;" parent="WIyWlLk6GJQsqaUBKTNV-1" source="_BHGbHKsS6Eedb4s3Qyd-1" target="_BHGbHKsS6Eedb4s3Qyd-44" edge="1">
          <mxGeometry relative="1" as="geometry" />
        </mxCell>
        <mxCell id="_BHGbHKsS6Eedb4s3Qyd-1" value="Start/Previous Step" style="strokeWidth=2;html=1;shape=mxgraph.flowchart.terminator;whiteSpace=wrap;spacing=20;spacingTop=5;spacingBottom=5;spacingLeft=5;spacingRight=5;fontSize=14;" parent="WIyWlLk6GJQsqaUBKTNV-1" vertex="1">
          <mxGeometry x="60" y="180" width="168" height="60" as="geometry" />
        </mxCell>
        <mxCell id="_BHGbHKsS6Eedb4s3Qyd-24" style="edgeStyle=orthogonalEdgeStyle;rounded=0;orthogonalLoop=1;jettySize=auto;html=1;spacing=12;spacingTop=5;spacingBottom=5;spacingLeft=5;spacingRight=5;entryX=0.5;entryY=0;entryDx=0;entryDy=0;fontSize=14;" parent="WIyWlLk6GJQsqaUBKTNV-1" source="_BHGbHKsS6Eedb4s3Qyd-28" target="MjtECzvxROPvNLKT2V86-0" edge="1">
          <mxGeometry relative="1" as="geometry">
            <mxPoint x="350.4399999999998" y="700" as="targetPoint" />
          </mxGeometry>
        </mxCell>
        <mxCell id="_BHGbHKsS6Eedb4s3Qyd-25" value="Yes" style="edgeLabel;html=1;align=center;verticalAlign=middle;resizable=0;points=[];spacing=12;spacingTop=5;spacingBottom=5;spacingLeft=5;spacingRight=5;fontSize=14;" parent="_BHGbHKsS6Eedb4s3Qyd-24" vertex="1" connectable="0">
          <mxGeometry x="-0.1553" y="1" relative="1" as="geometry">
            <mxPoint x="-1" y="-1" as="offset" />
          </mxGeometry>
        </mxCell>
        <mxCell id="_BHGbHKsS6Eedb4s3Qyd-26" style="edgeStyle=orthogonalEdgeStyle;rounded=0;orthogonalLoop=1;jettySize=auto;html=1;spacing=12;spacingTop=5;spacingBottom=5;spacingLeft=5;spacingRight=5;entryX=0.5;entryY=0;entryDx=0;entryDy=0;fontSize=14;" parent="WIyWlLk6GJQsqaUBKTNV-1" source="_BHGbHKsS6Eedb4s3Qyd-28" target="MjtECzvxROPvNLKT2V86-1" edge="1">
          <mxGeometry relative="1" as="geometry">
            <mxPoint x="528.4399999999998" y="700" as="targetPoint" />
            <Array as="points">
              <mxPoint x="556" y="570" />
            </Array>
          </mxGeometry>
        </mxCell>
        <mxCell id="_BHGbHKsS6Eedb4s3Qyd-27" value="No" style="edgeLabel;html=1;align=center;verticalAlign=middle;resizable=0;points=[];spacing=12;spacingTop=5;spacingBottom=5;spacingLeft=5;spacingRight=5;fontSize=14;" parent="_BHGbHKsS6Eedb4s3Qyd-26" vertex="1" connectable="0">
          <mxGeometry x="0.0678" relative="1" as="geometry">
            <mxPoint x="-80" y="-11" as="offset" />
          </mxGeometry>
        </mxCell>
        <mxCell id="_BHGbHKsS6Eedb4s3Qyd-28" value="&lt;p style=&quot;line-height: 120%; font-size: 14px;&quot;&gt;Did the customer order a &quot;Alcoholic Beverage&quot;?&lt;br style=&quot;font-size: 14px;&quot;&gt;&lt;/p&gt;" style="rhombus;whiteSpace=wrap;html=1;strokeWidth=2;rounded=1;arcSize=12;verticalAlign=middle;horizontal=1;spacing=21;spacingBottom=5;spacingTop=5;spacingLeft=5;spacingRight=5;fontSize=14;" parent="WIyWlLk6GJQsqaUBKTNV-1" vertex="1">
          <mxGeometry x="270.44" y="490" width="160" height="160" as="geometry" />
        </mxCell>
        <mxCell id="_BHGbHKsS6Eedb4s3Qyd-21" style="edgeStyle=orthogonalEdgeStyle;rounded=0;orthogonalLoop=1;jettySize=auto;html=1;entryX=0;entryY=0.5;entryDx=0;entryDy=0;spacing=12;spacingTop=5;spacingBottom=5;spacingLeft=5;spacingRight=5;fontSize=14;" parent="WIyWlLk6GJQsqaUBKTNV-1" source="_BHGbHKsS6Eedb4s3Qyd-23" target="_BHGbHKsS6Eedb4s3Qyd-28" edge="1">
          <mxGeometry relative="1" as="geometry">
            <mxPoint x="290" y="570" as="targetPoint" />
          </mxGeometry>
        </mxCell>
        <mxCell id="_BHGbHKsS6Eedb4s3Qyd-22" value="No" style="edgeLabel;html=1;align=center;verticalAlign=middle;resizable=0;points=[];spacing=12;spacingTop=5;spacingBottom=5;spacingLeft=5;spacingRight=5;fontSize=14;" parent="_BHGbHKsS6Eedb4s3Qyd-21" vertex="1" connectable="0">
          <mxGeometry x="0.0678" relative="1" as="geometry">
            <mxPoint x="-5" as="offset" />
          </mxGeometry>
        </mxCell>
        <mxCell id="_BHGbHKsS6Eedb4s3Qyd-66" style="edgeStyle=orthogonalEdgeStyle;rounded=0;orthogonalLoop=1;jettySize=auto;html=1;entryX=0.5;entryY=0;entryDx=0;entryDy=0;fontSize=14;" parent="WIyWlLk6GJQsqaUBKTNV-1" source="_BHGbHKsS6Eedb4s3Qyd-23" target="YU_TS85AlWWvWFaTti_b-3" edge="1">
          <mxGeometry relative="1" as="geometry">
            <mxPoint x="250.67999999999984" y="740" as="targetPoint" />
            <Array as="points" />
          </mxGeometry>
        </mxCell>
        <mxCell id="_BHGbHKsS6Eedb4s3Qyd-68" value="Yes" style="edgeLabel;html=1;align=center;verticalAlign=middle;resizable=0;points=[];fontSize=14;" parent="_BHGbHKsS6Eedb4s3Qyd-66" vertex="1" connectable="0">
          <mxGeometry x="-0.8265" y="-2" relative="1" as="geometry">
            <mxPoint x="2" y="15" as="offset" />
          </mxGeometry>
        </mxCell>
        <mxCell id="_BHGbHKsS6Eedb4s3Qyd-23" value="&lt;p style=&quot;line-height: 120%;&quot;&gt;Did the customer order a &quot;Non-Alcoholic Beverage&quot;?&lt;/p&gt;" style="rhombus;whiteSpace=wrap;html=1;strokeWidth=2;rounded=1;arcSize=12;verticalAlign=middle;horizontal=1;spacing=20;spacingBottom=0;spacingTop=0;spacingLeft=10;spacingRight=10;fontSize=14;" parent="WIyWlLk6GJQsqaUBKTNV-1" vertex="1">
          <mxGeometry x="64" y="490" width="160" height="160" as="geometry" />
        </mxCell>
        <mxCell id="YU_TS85AlWWvWFaTti_b-8" value="" style="edgeStyle=orthogonalEdgeStyle;rounded=0;orthogonalLoop=1;jettySize=auto;html=1;fontSize=14;entryX=0.5;entryY=0;entryDx=0;entryDy=0;" parent="WIyWlLk6GJQsqaUBKTNV-1" source="_BHGbHKsS6Eedb4s3Qyd-36" target="_BHGbHKsS6Eedb4s3Qyd-23" edge="1">
          <mxGeometry relative="1" as="geometry">
            <mxPoint x="144" y="500" as="targetPoint" />
          </mxGeometry>
        </mxCell>
        <mxCell id="_BHGbHKsS6Eedb4s3Qyd-36" value="&lt;div style=&quot;font-size: 14px;&quot;&gt;Create a variable named &lt;br style=&quot;font-size: 14px;&quot;&gt;snackCosts: [Charge]&lt;/div&gt;" style="shape=parallelogram;html=1;strokeWidth=2;perimeter=parallelogramPerimeter;whiteSpace=wrap;rounded=1;arcSize=12;size=0.23;spacing=20;spacingTop=0;spacingBottom=0;spacingLeft=15;spacingRight=15;fontSize=14;" parent="WIyWlLk6GJQsqaUBKTNV-1" vertex="1">
          <mxGeometry x="28" y="380" width="232" height="80" as="geometry" />
        </mxCell>
        <mxCell id="_BHGbHKsS6Eedb4s3Qyd-52" style="edgeStyle=orthogonalEdgeStyle;rounded=0;orthogonalLoop=1;jettySize=auto;html=1;entryX=0.5;entryY=-0.047;entryDx=0;entryDy=0;entryPerimeter=0;fontSize=14;" parent="WIyWlLk6GJQsqaUBKTNV-1" source="_BHGbHKsS6Eedb4s3Qyd-38" target="_BHGbHKsS6Eedb4s3Qyd-53" edge="1">
          <mxGeometry relative="1" as="geometry">
            <mxPoint x="350.02000000000004" y="1209.9999999999998" as="targetPoint" />
          </mxGeometry>
        </mxCell>
        <mxCell id="_BHGbHKsS6Eedb4s3Qyd-38" value="&lt;div&gt;Output snackCosts&lt;/div&gt;" style="shape=parallelogram;html=1;strokeWidth=2;perimeter=parallelogramPerimeter;whiteSpace=wrap;rounded=1;arcSize=12;size=0.23;spacing=20;spacingTop=20;spacingBottom=20;spacingLeft=30;spacingRight=30;fontSize=14;" parent="WIyWlLk6GJQsqaUBKTNV-1" vertex="1">
          <mxGeometry x="271.32" y="1050" width="159.12" height="50" as="geometry" />
        </mxCell>
        <mxCell id="_BHGbHKsS6Eedb4s3Qyd-96" value="" style="edgeStyle=orthogonalEdgeStyle;rounded=0;orthogonalLoop=1;jettySize=auto;html=1;fontSize=14;exitX=0.5;exitY=1;exitDx=0;exitDy=0;" parent="WIyWlLk6GJQsqaUBKTNV-1" source="MjtECzvxROPvNLKT2V86-0" target="_BHGbHKsS6Eedb4s3Qyd-78" edge="1">
          <mxGeometry relative="1" as="geometry">
            <mxPoint x="350.91619047619037" y="810" as="sourcePoint" />
          </mxGeometry>
        </mxCell>
        <mxCell id="YU_TS85AlWWvWFaTti_b-9" value="" style="edgeStyle=orthogonalEdgeStyle;rounded=0;orthogonalLoop=1;jettySize=auto;html=1;fontSize=14;" parent="WIyWlLk6GJQsqaUBKTNV-1" source="_BHGbHKsS6Eedb4s3Qyd-44" target="_BHGbHKsS6Eedb4s3Qyd-36" edge="1">
          <mxGeometry relative="1" as="geometry" />
        </mxCell>
        <mxCell id="_BHGbHKsS6Eedb4s3Qyd-44" value="&lt;div style=&quot;font-size: 14px;&quot;&gt;Create a variable&amp;nbsp; named “snackPrices” and&amp;nbsp; store prices.snackPrices&lt;/div&gt;" style="shape=parallelogram;html=1;strokeWidth=2;perimeter=parallelogramPerimeter;whiteSpace=wrap;rounded=1;arcSize=12;size=0.23;spacing=10;spacingTop=0;spacingBottom=0;spacingLeft=20;spacingRight=20;fontSize=14;" parent="WIyWlLk6GJQsqaUBKTNV-1" vertex="1">
          <mxGeometry x="38" y="270" width="212" height="80" as="geometry" />
        </mxCell>
        <mxCell id="_BHGbHKsS6Eedb4s3Qyd-53" value="End/Next Step" style="strokeWidth=2;html=1;shape=mxgraph.flowchart.terminator;whiteSpace=wrap;spacing=20;spacingTop=5;spacingBottom=5;spacingLeft=5;spacingRight=5;fontSize=14;" parent="WIyWlLk6GJQsqaUBKTNV-1" vertex="1">
          <mxGeometry x="266.88000000000005" y="1130" width="168" height="50" as="geometry" />
        </mxCell>
        <mxCell id="_BHGbHKsS6Eedb4s3Qyd-80" value="" style="edgeStyle=orthogonalEdgeStyle;rounded=0;orthogonalLoop=1;jettySize=auto;html=1;fontSize=14;" parent="WIyWlLk6GJQsqaUBKTNV-1" source="_BHGbHKsS6Eedb4s3Qyd-78" target="_BHGbHKsS6Eedb4s3Qyd-38" edge="1">
          <mxGeometry relative="1" as="geometry" />
        </mxCell>
        <mxCell id="_BHGbHKsS6Eedb4s3Qyd-81" value="Yes" style="edgeLabel;html=1;align=center;verticalAlign=middle;resizable=0;points=[];fontSize=14;" parent="_BHGbHKsS6Eedb4s3Qyd-80" vertex="1" connectable="0">
          <mxGeometry x="-0.1632" y="-1" relative="1" as="geometry">
            <mxPoint as="offset" />
          </mxGeometry>
        </mxCell>
        <mxCell id="_BHGbHKsS6Eedb4s3Qyd-84" style="edgeStyle=orthogonalEdgeStyle;rounded=0;orthogonalLoop=1;jettySize=auto;html=1;entryX=0;entryY=0.5;entryDx=0;entryDy=0;exitX=0;exitY=0.5;exitDx=0;exitDy=0;fontSize=14;" parent="WIyWlLk6GJQsqaUBKTNV-1" source="_BHGbHKsS6Eedb4s3Qyd-78" target="_BHGbHKsS6Eedb4s3Qyd-23" edge="1">
          <mxGeometry relative="1" as="geometry">
            <mxPoint x="190" y="870" as="sourcePoint" />
            <Array as="points">
              <mxPoint y="940" />
              <mxPoint y="570" />
            </Array>
          </mxGeometry>
        </mxCell>
        <mxCell id="_BHGbHKsS6Eedb4s3Qyd-85" value="No" style="edgeLabel;html=1;align=center;verticalAlign=middle;resizable=0;points=[];fontSize=14;" parent="_BHGbHKsS6Eedb4s3Qyd-84" vertex="1" connectable="0">
          <mxGeometry x="-0.9038" y="1" relative="1" as="geometry">
            <mxPoint x="2" y="-1" as="offset" />
          </mxGeometry>
        </mxCell>
        <mxCell id="_BHGbHKsS6Eedb4s3Qyd-78" value="&lt;p style=&quot;line-height: 120%; font-size: 14px;&quot;&gt;Is the customer done ordering?&lt;br style=&quot;font-size: 14px;&quot;&gt;&lt;/p&gt;" style="rhombus;whiteSpace=wrap;html=1;strokeWidth=2;rounded=1;arcSize=12;verticalAlign=middle;horizontal=1;spacing=21;spacingBottom=5;spacingTop=5;spacingLeft=5;spacingRight=5;fontSize=14;" parent="WIyWlLk6GJQsqaUBKTNV-1" vertex="1">
          <mxGeometry x="280.88" y="870" width="140" height="140" as="geometry" />
        </mxCell>
        <mxCell id="YU_TS85AlWWvWFaTti_b-6" style="edgeStyle=orthogonalEdgeStyle;rounded=0;orthogonalLoop=1;jettySize=auto;html=1;entryX=0.5;entryY=0;entryDx=0;entryDy=0;fontSize=14;exitX=0.5;exitY=1;exitDx=0;exitDy=0;" parent="WIyWlLk6GJQsqaUBKTNV-1" source="MjtECzvxROPvNLKT2V86-1" target="_BHGbHKsS6Eedb4s3Qyd-78" edge="1">
          <mxGeometry relative="1" as="geometry">
            <Array as="points">
              <mxPoint x="556.44" y="840" />
              <mxPoint x="350.44" y="840" />
            </Array>
            <mxPoint x="528.44" y="820" as="sourcePoint" />
          </mxGeometry>
        </mxCell>
        <mxCell id="YU_TS85AlWWvWFaTti_b-7" style="edgeStyle=orthogonalEdgeStyle;rounded=0;orthogonalLoop=1;jettySize=auto;html=1;entryX=0.5;entryY=0;entryDx=0;entryDy=0;fontSize=14;" parent="WIyWlLk6GJQsqaUBKTNV-1" source="YU_TS85AlWWvWFaTti_b-3" target="_BHGbHKsS6Eedb4s3Qyd-78" edge="1">
          <mxGeometry relative="1" as="geometry">
            <Array as="points">
              <mxPoint x="144.44" y="840" />
              <mxPoint x="350.44" y="840" />
            </Array>
          </mxGeometry>
        </mxCell>
        <mxCell id="YU_TS85AlWWvWFaTti_b-3" value="Create a new Charge, set name to snackPrices[0].name, amount to snackPrices[0].price, and add to snackCosts" style="rounded=1;whiteSpace=wrap;html=1;absoluteArcSize=1;arcSize=14;strokeWidth=2;spacing=10;spacingTop=0;spacingBottom=0;spacingLeft=0;spacingRight=0;fontSize=14;" parent="WIyWlLk6GJQsqaUBKTNV-1" vertex="1">
          <mxGeometry x="58.44" y="690" width="172" height="120" as="geometry" />
        </mxCell>
        <mxCell id="MjtECzvxROPvNLKT2V86-0" value="Create a new Charge, set name to snackPrices[1].name, amount to snackPrices[1].price, and add to snackCosts" style="rounded=1;whiteSpace=wrap;html=1;absoluteArcSize=1;arcSize=14;strokeWidth=2;spacing=10;spacingTop=0;spacingBottom=0;spacingLeft=0;spacingRight=0;fontSize=14;" vertex="1" parent="WIyWlLk6GJQsqaUBKTNV-1">
          <mxGeometry x="264.88" y="690" width="172" height="120" as="geometry" />
        </mxCell>
        <mxCell id="MjtECzvxROPvNLKT2V86-1" value="Create a new Charge, set name to snackPrices[2].name, amount to snackPrices[2].price, and add to snackCosts" style="rounded=1;whiteSpace=wrap;html=1;absoluteArcSize=1;arcSize=14;strokeWidth=2;spacing=10;spacingTop=0;spacingBottom=0;spacingLeft=0;spacingRight=0;fontSize=14;" vertex="1" parent="WIyWlLk6GJQsqaUBKTNV-1">
          <mxGeometry x="470.44" y="690" width="172" height="120" as="geometry" />
        </mxCell>
      </root>
    </mxGraphModel>
  </diagram>
</mxfile>
